<?xml version="1.0" encoding="UTF-8"?>
<!DOCTYPE svg PUBLIC "-//W3C//DTD SVG 1.1//EN" "http://www.w3.org/Graphics/SVG/1.1/DTD/svg11.dtd">
<!-- Creator: CorelDRAW 2018 (64-Bit) -->
<svg xmlns="http://www.w3.org/2000/svg" xml:space="preserve" width="60mm" height="60mm" version="1.1" style="shape-rendering:geometricPrecision; text-rendering:geometricPrecision; image-rendering:optimizeQuality; fill-rule:evenodd; clip-rule:evenodd"
viewBox="0 0 671.33 671.33"
 xmlns:xlink="http://www.w3.org/1999/xlink">
 <defs>
  <style type="text/css">
   <![CDATA[
    .fil1 {fill:#EF7F1A}
    .fil0 {fill:#2C2417}
   ]]>
  </style>
 </defs>
 <g id="Слой_x0020_1">
  <metadata id="CorelCorpID_0Corel-Layer"/>
  <g id="_2089667925328">
   <path class="fil0" d="M291.86 281.38c-1.12,-51.89 -7.16,-87.82 22.17,-122.36 29.34,-34.56 86.79,-35.42 128.56,-25.68l0.62 64.72c-83.43,10.16 -73.07,-11.64 -75.16,82.4l72.72 -0.03 -9.87 74.42 -62.71 2.43 1.15 186.83 -77.86 -0.63 0.6 -188.62 -64.71 0.97 -0.41 -75.38 64.91 0.93zm43.81 -281.38c185.38,0 335.67,150.28 335.67,335.67 0,185.38 -150.28,335.67 -335.67,335.67 -185.38,0 -335.67,-150.28 -335.67,-335.67 0,-185.38 150.28,-335.67 335.67,-335.67z"/>
   <path class="fil1" d="M291.86 281.38l-64.91 -0.93 0.41 75.38 64.71 -0.97 -0.6 188.62 77.86 0.63 -1.15 -186.83 62.71 -2.43 9.87 -74.42 -72.72 0.03c2.09,-94.04 -8.27,-72.24 75.16,-82.4l-0.62 -64.72c-41.77,-9.74 -99.22,-8.88 -128.56,25.68 -29.33,34.54 -23.29,70.47 -22.17,122.36z"/>
  </g>
 </g>
</svg>
