<?xml version="1.0" encoding="UTF-8"?>
<!DOCTYPE svg PUBLIC "-//W3C//DTD SVG 1.1//EN" "http://www.w3.org/Graphics/SVG/1.1/DTD/svg11.dtd">
<!-- Creator: CorelDRAW 2018 (64-Bit) -->
<svg xmlns="http://www.w3.org/2000/svg" xml:space="preserve" width="60mm" height="60mm" version="1.1" style="shape-rendering:geometricPrecision; text-rendering:geometricPrecision; image-rendering:optimizeQuality; fill-rule:evenodd; clip-rule:evenodd"
viewBox="0 0 1203.29 1203.29"
 xmlns:xlink="http://www.w3.org/1999/xlink">
 <defs>
  <style type="text/css">
   <![CDATA[
    .fil0 {fill:#2C2417}
    .fil1 {fill:#E9C191}
   ]]>
  </style>
 </defs>
 <g id="Слой_x0020_1">
  <metadata id="CorelCorpID_0Corel-Layer"/>
  <g id="_2090254036928">
   <path class="fil0" d="M523.13 504.34c-2.01,-93 -12.83,-157.4 39.73,-219.32 52.59,-61.94 155.57,-63.49 230.43,-46.03l1.11 116.01c-149.54,18.2 -130.98,-20.87 -134.72,147.68l130.33 -0.06 -17.69 133.39 -112.41 4.36 2.06 334.87 -139.55 -1.13 1.07 -338.08 -115.98 1.75 -0.73 -135.11 116.34 1.66zm78.52 -504.34c332.28,0 601.65,269.37 601.65,601.65 0,332.28 -269.37,601.65 -601.65,601.65 -332.28,0 -601.65,-269.37 -601.65,-601.65 0,-332.28 269.37,-601.65 601.65,-601.65z"/>
   <path class="fil1" d="M523.13 504.34l-116.34 -1.66 0.73 135.11 115.98 -1.75 -1.07 338.08 139.55 1.13 -2.06 -334.87 112.41 -4.36 17.69 -133.39 -130.33 0.06c3.74,-168.55 -14.82,-129.48 134.72,-147.68l-1.11 -116.01c-74.86,-17.46 -177.84,-15.91 -230.43,46.03 -52.56,61.92 -41.74,126.32 -39.73,219.32z"/>
  </g>
 </g>
</svg>
