<?xml version="1.0" encoding="UTF-8"?>
<!DOCTYPE svg PUBLIC "-//W3C//DTD SVG 1.1//EN" "http://www.w3.org/Graphics/SVG/1.1/DTD/svg11.dtd">
<!-- Creator: CorelDRAW 2018 (64-Bit) -->
<svg xmlns="http://www.w3.org/2000/svg" xml:space="preserve" width="60mm" height="60mm" version="1.1" style="shape-rendering:geometricPrecision; text-rendering:geometricPrecision; image-rendering:optimizeQuality; fill-rule:evenodd; clip-rule:evenodd"
viewBox="0 0 492.06 492.06"
 xmlns:xlink="http://www.w3.org/1999/xlink">
 <defs>
  <style type="text/css">
   <![CDATA[
    .fil0 {fill:#2C2417}
    .fil1 {fill:#E9C191}
   ]]>
  </style>
 </defs>
 <g id="Слой_x0020_1">
  <metadata id="CorelCorpID_0Corel-Layer"/>
  <g id="_2053694500736">
   <path class="fil0" d="M86.7 294.02c3.1,-98.62 -28.03,-207.38 107.9,-206.83 115.65,0.47 203.04,-23.69 209.21,107.38 1.66,35.29 3.38,119.86 -6.8,151.12 -15.46,47.45 -56.46,56.49 -102.59,58.75 -109.05,5.34 -211.66,14.52 -207.73,-110.42zm159.33 -294.02c135.88,0 246.03,110.15 246.03,246.03 0,135.88 -110.15,246.03 -246.03,246.03 -135.88,0 -246.03,-110.15 -246.03,-246.03 0,-135.88 110.15,-246.03 246.03,-246.03z"/>
   <path class="fil0" d="M227.48 165.55c110.47,-20.45 135.85,136.32 36.13,159.33 -44.48,10.26 -87.7,-15.45 -97.67,-59.41 -10.06,-44.37 16.5,-91.58 61.54,-99.92zm100.36 -24.3c34.74,5.91 20.79,37.89 3.08,38.48 -21.62,0.72 -29.73,-25.72 -3.08,-38.48zm47.45 166.47c0.54,-38.37 2.25,-87.98 -0.09,-125.4 -2.88,-46.12 -20.41,-62.47 -65.46,-66.22 -39.06,-3.25 -91.72,-2.93 -130.86,0.13 -44.38,3.46 -59.94,22.49 -63.46,66.08 -3.1,38.29 -2.91,92.55 0.37,130.83 3.77,43.93 23.72,61.69 68.4,62.53 38.5,0.72 87.81,2.3 125.54,-0.09 41.78,-2.65 64.95,-25.18 65.55,-67.86z"/>
   <path class="fil1" d="M375.29 307.72c-0.6,42.68 -23.77,65.21 -65.55,67.86 -37.73,2.39 -87.04,0.81 -125.54,0.09 -44.68,-0.84 -64.63,-18.61 -68.4,-62.53 -3.28,-38.28 -3.47,-92.54 -0.37,-130.83 3.53,-43.59 19.09,-62.62 63.46,-66.08 39.14,-3.05 91.79,-3.38 130.86,-0.13 45.05,3.75 62.58,20.11 65.46,66.22 2.34,37.42 0.63,87.04 0.09,125.4zm-288.59 -13.7c-3.93,124.93 98.67,115.76 207.73,110.42 46.13,-2.26 87.13,-11.3 102.59,-58.75 10.18,-31.26 8.46,-115.83 6.8,-151.12 -6.17,-131.07 -93.57,-106.91 -209.21,-107.38 -135.93,-0.55 -104.8,108.21 -107.9,206.83z"/>
   <path class="fil1" d="M192.41 249.24c-0.51,-73.98 99.75,-73.14 105.59,-9.21 6.54,71.47 -105.11,78.47 -105.59,9.21zm35.07 -83.69c-45.04,8.34 -71.6,55.55 -61.54,99.92 9.97,43.97 53.19,69.68 97.67,59.41 99.73,-23.01 74.34,-179.78 -36.13,-159.33z"/>
   <path class="fil0" d="M192.41 249.24c0.48,69.26 112.13,62.27 105.59,-9.21 -5.85,-63.93 -106.11,-64.77 -105.59,9.21z"/>
   <path class="fil1" d="M327.84 141.25c-26.66,12.76 -18.54,39.2 3.08,38.48 17.71,-0.59 31.66,-32.57 -3.08,-38.48z"/>
  </g>
 </g>
</svg>
