<?xml version="1.0" encoding="UTF-8"?>
<!DOCTYPE svg PUBLIC "-//W3C//DTD SVG 1.1//EN" "http://www.w3.org/Graphics/SVG/1.1/DTD/svg11.dtd">
<!-- Creator: CorelDRAW 2018 (64-Bit) -->
<svg xmlns="http://www.w3.org/2000/svg" xml:space="preserve" width="60mm" height="60mm" version="1.1" style="shape-rendering:geometricPrecision; text-rendering:geometricPrecision; image-rendering:optimizeQuality; fill-rule:evenodd; clip-rule:evenodd"
viewBox="0 0 366.04 366.04"
 xmlns:xlink="http://www.w3.org/1999/xlink">
 <defs>
  <style type="text/css">
   <![CDATA[
    .fil1 {fill:#EF7F1A}
    .fil0 {fill:#2C2417}
   ]]>
  </style>
 </defs>
 <g id="Слой_x0020_1">
  <metadata id="CorelCorpID_0Corel-Layer"/>
  <g id="_2053598035632">
   <path class="fil0" d="M64.5 218.72c2.31,-73.36 -20.85,-154.27 80.27,-153.86 86.03,0.35 151.04,-17.63 155.63,79.88 1.24,26.25 2.52,89.16 -5.06,112.41 -11.5,35.3 -42,42.02 -76.31,43.71 -81.12,3.97 -157.45,10.8 -154.53,-82.14zm118.52 -218.72c101.08,0 183.02,81.94 183.02,183.02 0,101.08 -81.94,183.02 -183.02,183.02 -101.08,0 -183.02,-81.94 -183.02,-183.02 0,-101.08 81.94,-183.02 183.02,-183.02z"/>
   <path class="fil0" d="M169.22 123.15c82.18,-15.21 101.06,101.41 26.88,118.53 -33.09,7.63 -65.24,-11.49 -72.65,-44.2 -7.48,-33.01 12.28,-68.13 45.78,-74.33zm74.66 -18.08c25.85,4.39 15.47,28.19 2.29,28.62 -16.08,0.54 -22.12,-19.14 -2.29,-28.62zm35.3 123.83c0.4,-28.54 1.67,-65.45 -0.06,-93.28 -2.14,-34.31 -15.18,-46.47 -48.69,-49.26 -29.06,-2.42 -68.23,-2.18 -97.34,0.1 -33.01,2.58 -44.59,16.73 -47.21,49.16 -2.3,28.48 -2.16,68.85 0.28,97.32 2.8,32.68 17.64,45.89 50.88,46.52 28.64,0.54 65.32,1.71 93.39,-0.07 31.08,-1.97 48.32,-18.73 48.76,-50.48z"/>
   <path class="fil1" d="M279.18 228.91c-0.45,31.75 -17.68,48.51 -48.76,50.48 -28.07,1.78 -64.75,0.61 -93.39,0.07 -33.24,-0.63 -48.08,-13.84 -50.88,-46.52 -2.44,-28.48 -2.58,-68.84 -0.28,-97.32 2.62,-32.43 14.2,-46.58 47.21,-49.16 29.12,-2.27 68.29,-2.52 97.34,-0.1 33.51,2.79 46.55,14.96 48.69,49.26 1.74,27.84 0.47,64.75 0.06,93.28zm-214.68 -10.19c-2.93,92.94 73.4,86.11 154.53,82.14 34.31,-1.68 64.81,-8.4 76.31,-43.71 7.58,-23.25 6.3,-86.16 5.06,-112.41 -4.59,-97.5 -69.6,-79.53 -155.63,-79.88 -101.12,-0.41 -77.96,80.5 -80.27,153.86z"/>
   <path class="fil1" d="M143.13 185.41c-0.38,-55.03 74.2,-54.41 78.55,-6.85 4.86,53.17 -78.19,58.37 -78.55,6.85zm26.09 -62.26c-33.5,6.2 -53.26,41.32 -45.78,74.33 7.42,32.71 39.57,51.83 72.65,44.2 74.18,-17.12 55.3,-133.74 -26.88,-118.53z"/>
   <path class="fil0" d="M143.13 185.41c0.36,51.52 83.41,46.32 78.55,-6.85 -4.35,-47.56 -78.93,-48.18 -78.55,6.85z"/>
   <path class="fil1" d="M243.88 105.08c-19.83,9.49 -13.79,29.16 2.29,28.62 13.18,-0.44 23.56,-24.23 -2.29,-28.62z"/>
  </g>
 </g>
</svg>
