<?xml version="1.0" encoding="UTF-8"?>
<!DOCTYPE svg PUBLIC "-//W3C//DTD SVG 1.1//EN" "http://www.w3.org/Graphics/SVG/1.1/DTD/svg11.dtd">
<!-- Creator: CorelDRAW 2018 (64-Bit) -->
<svg xmlns="http://www.w3.org/2000/svg" xml:space="preserve" width="60mm" height="60mm" version="1.1" style="shape-rendering:geometricPrecision; text-rendering:geometricPrecision; image-rendering:optimizeQuality; fill-rule:evenodd; clip-rule:evenodd"
viewBox="0 0 529.11 529.11"
 xmlns:xlink="http://www.w3.org/1999/xlink">
 <defs>
  <style type="text/css">
   <![CDATA[
    .fil1 {fill:#EF7F1A}
    .fil0 {fill:#2C2417}
   ]]>
  </style>
 </defs>
 <g id="Слой_x0020_1">
  <metadata id="CorelCorpID_0Corel-Layer"/>
  <g id="_2053750111984">
   <path class="fil0" d="M72.26 166.96c18.66,-6.37 55.31,-2.1 77.11,-1.41 12.91,26.96 34.24,92.83 67.95,97.01 6.27,-20.8 10.2,-51.34 3.09,-74.51 -5.9,-19.23 -15.44,-11.46 -19.2,-19.78 -8.62,-19.09 79.26,-11.19 91.96,-9.97 4.4,22.75 -4.27,89.17 10.74,102.74 27.64,-2.76 54.7,-71.86 63.09,-95.84 16.07,-0.65 31.71,-0.75 47.97,-0.77 6.97,-0.01 16.21,-0.43 22.91,0.01 14.28,0.95 15.7,3.16 17.27,5.31 5.12,17.44 -19.43,46.88 -27.73,58.52 -40.54,56.88 -51.39,43.45 9.9,102.46 7.29,7.02 16.49,15.67 18.67,27.14 4.34,22.78 -18.25,16.65 -57.37,16.65 -69.67,0 -48.89,-41.59 -84.92,-50.12 -21.87,9.72 -13.08,27.29 -20.33,47.49 -39.31,14.36 -92.1,-7.47 -124.67,-33.97 -18.6,-15.14 -99.71,-139.12 -96.45,-170.96zm192.3 -166.96c146.11,0 264.55,118.44 264.55,264.55 0,146.11 -118.45,264.55 -264.55,264.55 -146.11,0 -264.55,-118.44 -264.55,-264.55 0,-146.11 118.44,-264.55 264.55,-264.55z"/>
   <path class="fil1" d="M217.32 262.55c-33.72,-4.18 -55.04,-70.06 -67.95,-97.01 -21.8,-0.68 -58.45,-4.95 -77.11,1.41 -3.26,31.85 77.85,155.83 96.45,170.96 32.57,26.5 85.35,48.33 124.67,33.97 7.25,-20.2 -1.53,-37.77 20.33,-47.49 36.03,8.53 15.25,50.12 84.92,50.12 39.12,0 61.72,6.13 57.37,-16.65 -2.19,-11.47 -11.38,-20.13 -18.67,-27.14 -61.3,-59.01 -50.45,-45.58 -9.9,-102.46 8.3,-11.64 32.85,-41.08 27.73,-58.52 -1.57,-2.15 -2.99,-4.36 -17.27,-5.31 -6.7,-0.45 -15.94,-0.02 -22.91,-0.01 -16.26,0.02 -31.9,0.12 -47.97,0.77 -8.4,23.98 -35.45,93.08 -63.09,95.84 -15.01,-13.57 -6.34,-79.98 -10.74,-102.74 -12.7,-1.22 -100.58,-9.12 -91.96,9.97 3.75,8.31 13.29,0.54 19.2,19.78 7.11,23.17 3.18,53.72 -3.09,74.51z"/>
  </g>
 </g>
</svg>
