<?xml version="1.0" encoding="UTF-8"?>
<!DOCTYPE svg PUBLIC "-//W3C//DTD SVG 1.1//EN" "http://www.w3.org/Graphics/SVG/1.1/DTD/svg11.dtd">
<!-- Creator: CorelDRAW 2018 (64-Bit) -->
<svg xmlns="http://www.w3.org/2000/svg" xml:space="preserve" width="60mm" height="60mm" version="1.1" style="shape-rendering:geometricPrecision; text-rendering:geometricPrecision; image-rendering:optimizeQuality; fill-rule:evenodd; clip-rule:evenodd"
viewBox="0 0 812.05 812.05"
 xmlns:xlink="http://www.w3.org/1999/xlink">
 <defs>
  <style type="text/css">
   <![CDATA[
    .fil0 {fill:#2C2417}
    .fil1 {fill:#E9C191}
   ]]>
  </style>
 </defs>
 <g id="Слой_x0020_1">
  <metadata id="CorelCorpID_0Corel-Layer"/>
  <g id="_2090254047008">
   <path class="fil0" d="M110.9 256.23c28.64,-9.77 84.89,-3.22 118.35,-2.17 19.81,41.37 52.54,142.47 104.29,148.89 9.63,-31.92 15.66,-78.8 4.74,-114.36 -9.06,-29.52 -23.7,-17.59 -29.47,-30.35 -13.23,-29.3 121.65,-17.17 141.13,-15.3 6.75,34.92 -6.56,136.85 16.48,157.67 42.43,-4.23 83.94,-110.29 96.83,-147.1 24.66,-1 48.67,-1.15 73.62,-1.19 10.7,-0.01 24.88,-0.66 35.16,0.02 21.91,1.46 24.1,4.86 26.5,8.15 7.86,26.77 -29.82,71.95 -42.56,89.82 -62.22,87.3 -78.88,66.68 15.2,157.25 11.19,10.77 25.3,24.05 28.66,41.66 6.66,34.97 -28.01,25.56 -88.06,25.56 -106.93,0 -75.03,-63.82 -130.33,-76.91 -33.56,14.92 -20.08,41.88 -31.21,72.88 -60.34,22.04 -141.35,-11.46 -191.33,-52.14 -28.55,-23.23 -153.03,-213.51 -148.03,-262.38zm295.12 -256.23c224.24,0 406.02,181.78 406.02,406.02 0,224.24 -181.78,406.02 -406.02,406.02 -224.24,0 -406.02,-181.78 -406.02,-406.02 0,-224.24 181.78,-406.02 406.02,-406.02z"/>
   <path class="fil1" d="M333.53 402.95c-51.75,-6.42 -84.48,-107.52 -104.29,-148.89 -33.45,-1.05 -89.71,-7.6 -118.35,2.17 -5,48.87 119.49,239.15 148.03,262.38 49.98,40.67 130.99,74.18 191.33,52.14 11.13,-31.01 -2.35,-57.96 31.21,-72.88 55.3,13.09 23.4,76.91 130.33,76.91 60.05,0 94.72,9.41 88.06,-25.56 -3.36,-17.61 -17.47,-30.89 -28.66,-41.66 -94.07,-90.56 -77.42,-69.95 -15.2,-157.25 12.73,-17.87 50.42,-63.05 42.56,-89.82 -2.41,-3.29 -4.59,-6.69 -26.5,-8.15 -10.28,-0.69 -24.46,-0.04 -35.16,-0.02 -24.96,0.04 -48.97,0.18 -73.62,1.19 -12.89,36.81 -54.41,142.86 -96.83,147.1 -23.04,-20.82 -9.73,-122.76 -16.48,-157.67 -19.48,-1.87 -154.36,-14 -141.13,15.3 5.76,12.76 20.4,0.83 29.47,30.35 10.92,35.56 4.88,82.44 -4.74,114.36z"/>
  </g>
 </g>
</svg>
