<?xml version="1.0" encoding="UTF-8"?>
<!DOCTYPE svg PUBLIC "-//W3C//DTD SVG 1.1//EN" "http://www.w3.org/Graphics/SVG/1.1/DTD/svg11.dtd">
<!-- Creator: CorelDRAW 2018 (64-Bit) -->
<svg xmlns="http://www.w3.org/2000/svg" xml:space="preserve" width="60mm" height="60mm" version="1.1" style="shape-rendering:geometricPrecision; text-rendering:geometricPrecision; image-rendering:optimizeQuality; fill-rule:evenodd; clip-rule:evenodd"
viewBox="0 0 612.8 612.8"
 xmlns:xlink="http://www.w3.org/1999/xlink">
 <defs>
  <style type="text/css">
   <![CDATA[
    .fil0 {fill:#2C2417}
    .fil1 {fill:#E9C191}
   ]]>
  </style>
 </defs>
 <g id="Слой_x0020_1">
  <metadata id="CorelCorpID_0Corel-Layer"/>
  <g id="_2090252005280">
   <path class="fil0" d="M121.79 494.61c3.45,-19.22 17.93,-56.19 25.17,-76.52 12.74,-35.76 -3.49,-32.44 -12.78,-69.04 -14.43,-56.85 0.99,-120.34 30.91,-158.57 7.01,-8.96 18.91,-19.05 26.05,-26.99 38.59,-42.91 124.42,-58.8 190.59,-31.74 34.99,14.31 48.4,28.71 72.32,52.61 55.75,55.71 64.55,183.49 -28.41,262.86 -35.55,30.36 -100.42,46.36 -154.86,34.08 -39.05,-8.81 -33.64,-23.05 -74.24,-9.64 -18.68,6.17 -58.07,20.5 -74.76,22.96zm184.61 -494.61c169.22,0 306.4,137.18 306.4,306.4 0,169.22 -137.18,306.4 -306.4,306.4 -169.22,0 -306.4,-137.18 -306.4,-306.4 0,-169.22 137.18,-306.4 306.4,-306.4z"/>
   <path class="fil0" d="M405.33 342.31c-2.99,76.1 -88.93,39.36 -123.27,10.42 -8.36,-7.04 -10.35,-8.17 -17.77,-16.54 -22.76,-25.68 -61.69,-75.21 -28.16,-108.87 34.38,-34.51 49.06,33.73 46.37,42.58 -4.49,14.75 -3.96,3.19 -13.21,15.28 12.39,32.87 36.02,49.3 67.49,61.35l23.1 -23.85 45.45 19.62zm-236.87 105.79c18.09,-0.88 40.05,-17.77 57.72,-15.62 10.05,1.22 36.14,18.14 60.11,21.75 73.07,11.01 107.99,-20.48 143.17,-52.29 19.95,-18.04 34.11,-63.33 36.4,-88.84 10.5,-116.82 -113.52,-203.33 -224.05,-148.16 -8.29,4.14 -20.46,10.49 -26.18,15.64 -8.09,7.29 -13.19,14.69 -20.23,21.28 -8.93,8.36 -8.9,9.49 -16.54,21.26 -25.35,39.04 -27.03,93.13 -10.44,137.26 20.13,53.52 25.09,1.75 0.04,87.72z"/>
   <path class="fil1" d="M168.47 448.11c25.05,-85.97 20.09,-34.2 -0.04,-87.72 -16.6,-44.14 -14.91,-98.22 10.44,-137.26 7.64,-11.77 7.6,-12.9 16.54,-21.26 7.04,-6.59 12.14,-14 20.23,-21.28 5.71,-5.15 17.89,-11.5 26.18,-15.64 110.53,-55.17 234.54,31.33 224.05,148.16 -2.29,25.51 -16.45,70.8 -36.4,88.84 -35.18,31.81 -70.1,63.3 -143.17,52.29 -23.97,-3.61 -50.06,-20.53 -60.11,-21.75 -17.66,-2.14 -39.62,14.74 -57.72,15.62zm-46.68 46.51c16.68,-2.46 56.07,-16.79 74.76,-22.96 40.6,-13.41 35.19,0.84 74.24,9.64 54.44,12.28 119.31,-3.72 154.86,-34.08 92.96,-79.37 84.15,-207.15 28.41,-262.86 -23.92,-23.9 -37.33,-38.3 -72.32,-52.61 -66.17,-27.06 -152,-11.17 -190.59,31.74 -7.14,7.94 -19.04,18.03 -26.05,26.99 -29.91,38.23 -45.33,101.72 -30.91,158.57 9.29,36.6 25.52,33.28 12.78,69.04 -7.24,20.33 -21.73,57.3 -25.17,76.52z"/>
   <path class="fil1" d="M405.33 342.31l-45.45 -19.62 -23.1 23.85c-31.48,-12.05 -55.1,-28.48 -67.49,-61.35 9.25,-12.1 8.73,-0.53 13.21,-15.28 2.69,-8.85 -11.99,-77.1 -46.37,-42.58 -33.53,33.66 5.4,83.18 28.16,108.87 7.42,8.37 9.41,9.5 17.77,16.54 34.34,28.93 120.27,65.68 123.27,-10.42z"/>
  </g>
 </g>
</svg>
