<?xml version="1.0" encoding="UTF-8"?>
<!DOCTYPE svg PUBLIC "-//W3C//DTD SVG 1.1//EN" "http://www.w3.org/Graphics/SVG/1.1/DTD/svg11.dtd">
<!-- Creator: CorelDRAW 2018 (64-Bit) -->
<svg xmlns="http://www.w3.org/2000/svg" xml:space="preserve" width="60mm" height="60mm" version="1.1" style="shape-rendering:geometricPrecision; text-rendering:geometricPrecision; image-rendering:optimizeQuality; fill-rule:evenodd; clip-rule:evenodd"
viewBox="0 0 436.61 436.61"
 xmlns:xlink="http://www.w3.org/1999/xlink">
 <defs>
  <style type="text/css">
   <![CDATA[
    .fil1 {fill:#EF7F1A}
    .fil0 {fill:#2C2417}
   ]]>
  </style>
 </defs>
 <g id="Слой_x0020_1">
  <metadata id="CorelCorpID_0Corel-Layer"/>
  <g id="_2053715397056">
   <path class="fil0" d="M86.77 352.4c2.46,-13.69 12.78,-40.03 17.94,-54.52 9.08,-25.48 -2.49,-23.11 -9.1,-49.19 -10.28,-40.51 0.71,-85.74 22.02,-112.98 4.99,-6.38 13.47,-13.57 18.56,-19.23 27.49,-30.57 88.65,-41.89 135.79,-22.61 24.93,10.19 34.49,20.45 51.53,37.48 39.72,39.69 45.99,130.73 -20.24,187.28 -25.33,21.63 -71.55,33.03 -110.34,24.28 -27.82,-6.27 -23.97,-16.43 -52.9,-6.87 -13.31,4.4 -41.37,14.6 -53.26,16.36zm131.53 -352.4c120.57,0 218.3,97.74 218.3,218.3 0,120.57 -97.74,218.3 -218.3,218.3 -120.57,0 -218.3,-97.74 -218.3,-218.3 0,-120.57 97.74,-218.3 218.3,-218.3z"/>
   <path class="fil0" d="M288.79 243.89c-2.13,54.22 -63.36,28.04 -87.82,7.43 -5.95,-5.02 -7.37,-5.82 -12.66,-11.79 -16.22,-18.3 -43.95,-53.58 -20.07,-77.57 24.49,-24.59 34.96,24.03 33.04,30.34 -3.2,10.51 -2.82,2.27 -9.41,10.89 8.83,23.42 25.66,35.13 48.09,43.71l16.46 -17 32.38 13.98zm-168.76 75.38c12.89,-0.63 28.54,-12.66 41.12,-11.13 7.16,0.87 25.75,12.93 42.82,15.5 52.06,7.84 76.94,-14.59 102,-37.26 14.22,-12.85 24.3,-45.12 25.93,-63.3 7.48,-83.24 -80.88,-144.87 -159.63,-105.56 -5.9,2.95 -14.58,7.47 -18.65,11.14 -5.76,5.19 -9.4,10.47 -14.41,15.16 -6.36,5.96 -6.34,6.76 -11.78,15.15 -18.06,27.81 -19.26,66.35 -7.44,97.8 14.34,38.13 17.87,1.25 0.03,62.5z"/>
   <path class="fil1" d="M120.03 319.27c17.85,-61.25 14.31,-24.37 -0.03,-62.5 -11.83,-31.45 -10.62,-69.98 7.44,-97.8 5.44,-8.38 5.42,-9.19 11.78,-15.15 5.02,-4.7 8.65,-9.97 14.41,-15.16 4.07,-3.67 12.75,-8.19 18.65,-11.14 78.75,-39.31 167.11,22.32 159.63,105.56 -1.63,18.18 -11.72,50.44 -25.93,63.3 -25.06,22.67 -49.95,45.1 -102,37.26 -17.08,-2.57 -35.66,-14.63 -42.82,-15.5 -12.59,-1.53 -28.23,10.5 -41.12,11.13zm-33.26 33.13c11.89,-1.76 39.95,-11.96 53.26,-16.36 28.93,-9.56 25.07,0.6 52.9,6.87 38.79,8.75 85,-2.65 110.34,-24.28 66.23,-56.55 59.96,-147.59 20.24,-187.28 -17.04,-17.03 -26.6,-27.29 -51.53,-37.48 -47.14,-19.28 -108.3,-7.96 -135.79,22.61 -5.09,5.66 -13.57,12.85 -18.56,19.23 -21.31,27.24 -32.3,72.47 -22.02,112.98 6.62,26.08 18.18,23.71 9.1,49.19 -5.16,14.48 -15.48,40.82 -17.94,54.52z"/>
   <path class="fil1" d="M288.79 243.89l-32.38 -13.98 -16.46 17c-22.43,-8.58 -39.26,-20.29 -48.09,-43.71 6.59,-8.62 6.22,-0.38 9.41,-10.89 1.92,-6.3 -8.54,-54.93 -33.04,-30.34 -23.89,23.98 3.85,59.27 20.07,77.57 5.29,5.96 6.7,6.77 12.66,11.79 24.46,20.61 85.69,46.8 87.82,-7.43z"/>
  </g>
 </g>
</svg>
